HIERARCHY
ROOT Hips
{
  OFFSET -31.5692 30.0904 122.763
  CHANNELS 6 Xposition Yposition Zposition Zrotation Xrotation Yrotation
  JOINT LeftUpLeg
  {
    OFFSET 8.64259 1.95398 -2.38835
    CHANNELS 3 Zrotation Xrotation Yrotation
    JOINT LeftLeg
    {
      OFFSET 43.7702 0 0
      CHANNELS 3 Zrotation Xrotation Yrotation
      JOINT LeftFoot
      {
        OFFSET 40.6238 0 0
        CHANNELS 3 Zrotation Xrotation Yrotation
        JOINT LeftToeBase
        {
          OFFSET 12.7242 0 0
          CHANNELS 3 Zrotation Xrotation Yrotation
          End Site
          {
            OFFSET 0 0 0
          }
        }
      }
    }
  }
  JOINT RightUpLeg
  {
    OFFSET -8.2249 1.95398 -2.59336
    CHANNELS 3 Zrotation Xrotation Yrotation
    JOINT RightLeg
    {
      OFFSET 43.5653 0 0
      CHANNELS 3 Zrotation Xrotation Yrotation
      JOINT RightFoot
      {
        OFFSET 40.6238 0 0
        CHANNELS 3 Zrotation Xrotation Yrotation
        JOINT RightToeBase
        {
          OFFSET 12.7242 0 0
          CHANNELS 3 Zrotation Xrotation Yrotation
          End Site
          {
            OFFSET 0 0 0
          }
        }
      }
    }
  }
  JOINT Spine
  {
    OFFSET 0.165834 0.87714 6.61349
    CHANNELS 3 Zrotation Xrotation Yrotation
    JOINT Spine1
    {
      OFFSET 7.38963 1.71661e-005 0
      CHANNELS 3 Zrotation Xrotation Yrotation
      JOINT Spine2
      {
        OFFSET 11.9445 1.14441e-005 0
        CHANNELS 3 Zrotation Xrotation Yrotation
        JOINT Spine3
        {
          OFFSET 14.7254 4.19617e-005 0
          CHANNELS 3 Zrotation Xrotation Yrotation
          JOINT Spine4
          {
            OFFSET 10.9679 0 0
            CHANNELS 3 Zrotation Xrotation Yrotation
            JOINT RightShoulder
            {
              OFFSET 2.46616 -1.6653 3.69651
              CHANNELS 3 Zrotation Xrotation Yrotation
              JOINT RightArm
              {
                OFFSET 13.0012 0 0
                CHANNELS 3 Zrotation Xrotation Yrotation
                JOINT RightForeArm
                {
                  OFFSET 28.7848 1.62311e-005 0
                  CHANNELS 3 Zrotation Xrotation Yrotation
                  JOINT RightHand
                  {
                    OFFSET 26.5688 1.62095e-005 0
                    CHANNELS 3 Zrotation Xrotation Yrotation
                    End Site
                    {
                      OFFSET 0 0 0
                    }
                  }
                }
              }
            }
            JOINT LeftShoulder
            {
              OFFSET 2.38034 -1.29275 -3.7523
              CHANNELS 3 Zrotation Xrotation Yrotation
              JOINT LeftArm
              {
                OFFSET 16.3182 6.07031e-005 0
                CHANNELS 3 Zrotation Xrotation Yrotation
                JOINT LeftForeArm
                {
                  OFFSET 27.0901 0 0
                  CHANNELS 3 Zrotation Xrotation Yrotation
                  JOINT LeftHand
                  {
                    OFFSET 24.5451 1.51738e-005 0
                    CHANNELS 3 Zrotation Xrotation Yrotation
                    End Site
                    {
                      OFFSET 0 0 0
                    }
                  }
                }
              }
            }
            JOINT Neck
            {
              OFFSET 5.0226 -0.0266342 0
              CHANNELS 3 Zrotation Xrotation Yrotation
              JOINT Head
              {
                OFFSET 6.69364 2.86102e-005 0
                CHANNELS 3 Zrotation Xrotation Yrotation
                End Site
                {
                  OFFSET 0 0 0
                }
              }
            }
          }
        }
      }
    }
  }
}
MOTION
Frames:	6
Frame Time:	0.0416667
-21.8681 101.561 59.7772 102.049 26.9693 84.4497 -173.795 -6.95388 87.5634 -11.0927 -0.560796 0.28207 70.7773 6.08336 -0.97507 13.0289 -12.3536 8.38955 172.353 -5.78171 88.4783 -14.2317 -19.3056 -2.28022 65.8985 -3.85976 0.307275 25.6177 0.636955 3.61519 0.1018 7.9205 -90.0335 11.033 0.187189 -0.0846402 -0.637991 0.183307 -0.0928051 -23.1733 0.203947 -0.024474 -3.1606 0.203968 -0.0244752 88.2464 -29.605 -110.387 22.7837 -8.63986 -27.729 12.9361 13.6695 -39.5684 -9.91484 1.90743 -20.6355 -89.4849 -51.8157 79.8659 -17.1287 6.13217 -16.501 -22.545 -35.4614 -39.7995 -14.1082 1.17 -25.4994 -8.89324 -6.18402 -6.35182 -3.75965 -5.79422 -0.0767511 
-21.9104 101.549 59.714 101.863 27.513 84.474 -173.825 -6.55757 87.5909 -11.2962 -0.218546 0.289784 69.9185 5.47562 -0.993771 15.1014 -10.6373 7.60547 172.182 -5.5651 88.3767 -14.2417 -19.0356 -2.08018 65.9986 -3.9751 0.250861 25.7399 0.616743 3.47502 0.131259 7.90589 -90.0651 11.0622 0.231125 -0.151761 -0.608691 0.224227 -0.161795 -23.144 0.266052 -0.0752896 -3.13134 0.266064 -0.0752799 88.5076 -29.1315 -110.077 23.2293 -8.59205 -27.4126 11.2706 10.9975 -39.1066 -8.97617 1.84658 -22.7068 -89.8363 -52.3595 79.4617 -16.7076 6.52951 -16.959 -21.8231 -34.2436 -38.8087 -12.5793 0.920589 -25.3081 -8.38638 -2.15145 -4.55667 -4.25826 -1.85841 1.56226 
-21.9953 101.513 59.6253 101.886 28.4253 84.4251 -173.672 -6.18727 87.7522 -11.8968 0.88918 0.166806 70.7709 5.92833 -1.2957 14.0967 -11.8121 8.62256 171.906 -5.63261 88.2779 -14.0655 -18.72 -1.74505 66.2467 -4.2209 0.260159 25.5562 0.931385 2.46453 0.148323 7.906 -90.0815 11.0621 0.257543 -0.186911 -0.608857 0.249061 -0.198074 -23.1442 0.301798 -0.100873 -3.13153 0.301803 -0.10087 88.2649 -29.247 -110.508 23.275 -8.10219 -26.346 11.7572 12.0688 -39.5681 -9.22525 1.92965 -22.646 -90.2126 -52.675 78.9789 -16.5942 7.0175 -17.2237 -22.0642 -34.7786 -39.0577 -11.1688 0.554446 -24.093 -7.63716 0.673335 -4.03195 -5.15779 0.929899 2.88078 
-22.1184 101.482 59.4036 101.488 29.2249 84.3568 -173.96 -5.67061 87.3761 -11.9403 1.23009 0.215216 69.9379 5.49814 -1.02455 15.9408 -10.1111 7.5994 171.527 -5.08552 87.8981 -14.3459 -18.4731 -1.48393 66.4666 -4.35028 0.135658 25.5862 1.00462 2.09124 0.169405 7.87785 -90.065 11.1184 0.306891 -0.159061 -0.552532 0.299596 -0.172418 -23.088 0.340534 -0.0594666 -3.07532 0.340509 -0.0594741 88.275 -29.448 -110.399 23.1495 -7.83074 -25.8835 11.6748 12.0717 -39.6406 -9.45052 1.96503 -22.6444 -90.2101 -52.5199 78.9506 -17.3579 7.48055 -17.5208 -21.5885 -35.0362 -38.9526 -11.2203 0.587519 -24.3032 -6.78158 2.64547 -3.81824 -5.55066 2.88375 3.93545 
-22.1066 101.456 59.1529 101.163 30.0559 84.4883 -173.983 -5.17687 87.3325 -12.3416 1.76417 0.179286 70.233 5.67261 -1.00971 15.6623 -10.1373 7.32074 171.554 -4.90338 87.8558 -14.1228 -16.9256 -1.41894 66.0468 -4.03268 0.631067 26.7538 0.196124 3.3899 0.197204 7.86502 -90.1032 11.1442 0.344601 -0.238986 -0.526743 0.333762 -0.253933 -23.0622 0.40049 -0.124369 -3.04955 0.40051 -0.124368 88.3378 -29.2778 -110.35 23.0634 -7.29093 -25.5419 11.1287 11.5825 -39.4597 -8.51396 1.89974 -23.8769 -90.2742 -52.9693 78.951 -17.7377 7.80055 -18.2286 -21.3447 -34.773 -38.5896 -10.29 0.361741 -23.5181 -5.89177 3.82189 -2.93287 -6.03889 3.98329 4.21756 
-22.0846 101.44 58.6876 101.396 30.794 84.1069 -174.128 -5.59181 87.0189 -12.0325 2.41967 0.15173 70.1371 5.79466 -0.900272 15.5201 -10.0409 6.97029 171.196 -5.15136 87.3888 -14.2583 -16.5481 -1.3915 66.3401 -4.16457 0.544395 26.7285 0.208622 3.382 0.212429 7.90579 -90.0959 11.0627 0.378253 -0.22727 -0.608222 0.367892 -0.243704 -23.1438 0.429117 -0.10307 -3.13114 0.429077 -0.103082 88.1642 -29.1775 -110.738 23.0909 -6.94822 -24.8961 12.1392 13.4979 -39.938 -10.1746 2.14925 -22.7144 -90.148 -52.9673 79.1328 -17.8033 8.51098 -19.0674 -20.6608 -35.0849 -37.8633 -13.239 1.04033 -25.4829 -5.39275 4.4969 -2.41018 -5.96486 4.62404 4.0687 
